<svg width="300" height="300" viewBox="0 0 300 300" fill="none" xmlns="http://www.w3.org/2000/svg">
<circle cx="150" cy="150" r="148.5" stroke="white" stroke-width="3"/>
<path d="M148.939 14.0607C149.525 14.6464 150.475 14.6464 151.061 14.0607L160.607 4.51472C161.192 3.92893 161.192 2.97918 160.607 2.3934C160.021 1.80761 159.071 1.80761 158.485 2.3934L150 10.8787L141.515 2.3934C140.929 1.80761 139.979 1.80761 139.393 2.3934C138.808 2.97918 138.808 3.92893 139.393 4.51472L148.939 14.0607ZM148.5 3V13H151.5V3H148.5Z" fill="white"/>
<path d="M151.061 285.939C150.475 285.354 149.525 285.354 148.939 285.939L139.393 295.485C138.808 296.071 138.808 297.021 139.393 297.607C139.979 298.192 140.929 298.192 141.515 297.607L150 289.121L158.485 297.607C159.071 298.192 160.021 298.192 160.607 297.607C161.192 297.021 161.192 296.071 160.607 295.485L151.061 285.939ZM151.5 297V287H148.5V297H151.5Z" fill="white"/>
<path d="M13.0607 151.061C13.6464 150.475 13.6464 149.525 13.0607 148.939L3.51472 139.393C2.92893 138.808 1.97918 138.808 1.3934 139.393C0.807612 139.979 0.807612 140.929 1.3934 141.515L9.87868 150L1.3934 158.485C0.807612 159.071 0.807612 160.021 1.3934 160.607C1.97918 161.192 2.92893 161.192 3.51472 160.607L13.0607 151.061ZM2 151.5H12V148.5H2V151.5Z" fill="white"/>
<path d="M285.939 148.939C285.354 149.525 285.354 150.475 285.939 151.061L295.485 160.607C296.071 161.192 297.021 161.192 297.607 160.607C298.192 160.021 298.192 159.071 297.607 158.485L289.121 150L297.607 141.515C298.192 140.929 298.192 139.979 297.607 139.393C297.021 138.808 296.071 138.808 295.485 139.393L285.939 148.939ZM297 148.5H287V151.5H297V148.5Z" fill="white"/>
<path d="M155.295 22.4545V37H153.591L145.665 25.5795H145.523V37H143.761V22.4545H145.466L153.42 33.9034H153.562V22.4545H155.295Z" fill="white"/>
<path d="M152.716 267.091C152.631 266.371 152.285 265.812 151.679 265.415C151.073 265.017 150.33 264.818 149.449 264.818C148.805 264.818 148.241 264.922 147.759 265.131C147.28 265.339 146.906 265.625 146.636 265.99C146.371 266.355 146.239 266.769 146.239 267.233C146.239 267.621 146.331 267.955 146.516 268.234C146.705 268.509 146.946 268.739 147.24 268.923C147.534 269.103 147.841 269.252 148.163 269.371C148.485 269.484 148.781 269.577 149.051 269.648L150.528 270.045C150.907 270.145 151.329 270.282 151.793 270.457C152.261 270.633 152.709 270.872 153.135 271.175C153.566 271.473 153.921 271.857 154.2 272.325C154.48 272.794 154.619 273.369 154.619 274.051C154.619 274.837 154.413 275.547 154.001 276.182C153.594 276.816 152.998 277.321 152.212 277.695C151.43 278.069 150.481 278.256 149.364 278.256C148.322 278.256 147.42 278.088 146.658 277.751C145.9 277.415 145.304 276.946 144.868 276.345C144.437 275.744 144.193 275.045 144.136 274.25H145.955C146.002 274.799 146.187 275.254 146.509 275.614C146.835 275.969 147.247 276.234 147.744 276.409C148.246 276.58 148.786 276.665 149.364 276.665C150.036 276.665 150.64 276.556 151.175 276.338C151.71 276.116 152.134 275.808 152.446 275.415C152.759 275.017 152.915 274.553 152.915 274.023C152.915 273.54 152.78 273.147 152.51 272.844C152.24 272.541 151.885 272.295 151.445 272.105C151.004 271.916 150.528 271.75 150.017 271.608L148.227 271.097C147.091 270.77 146.191 270.304 145.528 269.697C144.866 269.091 144.534 268.298 144.534 267.318C144.534 266.504 144.754 265.794 145.195 265.188C145.64 264.577 146.236 264.103 146.984 263.767C147.737 263.426 148.578 263.256 149.506 263.256C150.443 263.256 151.277 263.424 152.006 263.76C152.735 264.091 153.313 264.546 153.739 265.124C154.17 265.701 154.397 266.357 154.42 267.091H152.716Z" fill="white"/>
<path d="M269.761 157V142.455H278.54V144.017H271.523V148.932H278.085V150.494H271.523V155.438H278.653V157H269.761Z" fill="white"/>
<path d="M23.4034 157L19.4261 142.455H21.2159L24.2557 154.301H24.3977L27.4943 142.455H29.483L32.5795 154.301H32.7216L35.7614 142.455H37.5511L33.5739 157H31.7557L28.5455 145.409H28.4318L25.2216 157H23.4034Z" fill="white"/>
</svg>
